<?xml version="1.0" ?>
<svg data-name="Layer 1" id="Layer_1" viewBox="0 0 64 64" xmlns="http://www.w3.org/2000/svg">
<path style="stroke: #a5a9aa; fill: none; troke-linecap: round; stroke-miterlimit: 10; stroke-width: 3px;" d="M9.5,40.5H36.17a5.5,5.5,0,0,1,5.5,5.5h0a5.5,5.5,0,0,1-5.5,5.5"/><path style="stroke: #a5a9aa; fill: none; troke-linecap: round; stroke-miterlimit: 10; stroke-width: 3px;" d="M41.5,16.5A3.5,3.5,0,0,1,45,20h0a3.5,3.5,0,0,1-3.5,3.5H9.5"/><path style="stroke: #b9c1c6; fill: none; troke-linecap: round; stroke-miterlimit: 10; stroke-width: 3px;" d="M40.5,32.5H53a2.67,2.67,0,0,1,2.67,2.67h0A2.67,2.67,0,0,1,53,37.83"/><line style="stroke: #a5a9aa; fill: none; troke-linecap: round; stroke-miterlimit: 10; stroke-width: 3px;" x1="26.5" x2="34.5" y1="32.5" y2="32.5"/><line style="stroke: #b9c1c6; fill: none; troke-linecap: round; stroke-miterlimit: 10; stroke-width: 3px;" x1="9.5" x2="20.5" y1="32.5" y2="32.5"/></svg>
